# xmcd CD database file
#
# Track frame offsets:
#	150
#	14787
#	29150
#	40000
#	56352
#	69737
#	83815
#	101955
#	116787
#	134365
#
# Disc length: 1947 seconds
#
# Revision: 2
# Processed by: cddbd v1.5.2PL0 Copyright (c) Steve Scherf et al.
# Submitted via: CDex 1.81
#
DISCID=9207990a
DTITLE=Gail Davies - The Other Side Of Love
DYEAR=1990
DGENRE=Country
TTITLE0=I'm A Little Bit Lonely
TTITLE1=Happy Ever After (Comes One Day At A Time)
TTITLE2=Holdin' Out For You
TTITLE3=Someone Like Me
TTITLE4=A Love That Could Last
TTITLE5=With A Boy Like You
TTITLE6=Remember How It Was (To Be In Love)
TTITLE7=I Need My Baby Back
TTITLE8=The Other Side Of Love
TTITLE9=One More Night With You
EXTD=YEAR: 1990
EXTT0=
EXTT1=
EXTT2=
EXTT3=
EXTT4=
EXTT5=
EXTT6=
EXTT7=
EXTT8=
EXTT9=
PLAYORDER=
